# xmcd
#
# Track frame offsets:
#	150
#	13179
#	34320
#	46799
#	59135
#	72089
#	93747
#	107902
#	121843
#	138318
#	152817
#	169713
#	186258
#	201822
#	218960
#	232667
#	249499
#
# Disc length: 3510 seconds
#
# Revision: 1
# Processed by: cddbd v1.5.2PL0 Copyright (c) Steve Scherf et al.
# Submitted via: audiograbber 1.83.01
#
DISCID=f20db411
DTITLE=Pennsylvania Slim - This Is
DYEAR=2007
DGENRE=Blues
TTITLE0=The Livin' End
TTITLE1=Walk With Me Baby
TTITLE2=It's Gonna Work Out Fine
TTITLE3=If You Need Me
TTITLE4=Promise Land
TTITLE5=The Preacher's Daughter
TTITLE6=All Your Love (I Miss Lovin')
TTITLE7=Mess Around
TTITLE8=My Last Meal
TTITLE9=Stranded In The Jungle
TTITLE10=Three Hundred Pounds of Joy
TTITLE11=Cool And Easy
TTITLE12=Can't Believe You Wanna Leave
TTITLE13=That Ain't It
TTITLE14=Gangster of Love
TTITLE15=Homesick Boy
TTITLE16=You Never Can Tell
EXTD=www.pennslim.com
EXTT0=Brian Melching (Pennsylvania Slim)
EXTT1=Brian Melching
EXTT2=Ike Turner
EXTT3=Bateman, Pickett, Sanders
EXTT4=Chuck Berry
EXTT5=Brian Melching
EXTT6=Otis Rush
EXTT7=Ahmet Ertegun
EXTT8=James Lane
EXTT9=E. Smith, J. Johnson
EXTT10=Willie Dixon
EXTT11=Brian Melching
EXTT12=L. Price, R. Penniman
EXTT13=Brian Melching
EXTT14=Johnny "Guitar" Watson
EXTT15=James Williamson
EXTT16=Chuck Berry
PLAYORDER=
